<?xml version="1.0" encoding="UTF-8" standalone="no"?>
<!-- Created with Inkscape (http://www.inkscape.org/) -->

<svg
   width="210mm"
   height="297mm"
   viewBox="0 0 210 297"
   version="1.1"
   id="svg5"
   inkscape:export-filename="C:\Users\vasav\Documents\dating app\logo.png"
   inkscape:export-xdpi="96"
   inkscape:export-ydpi="96"
   inkscape:version="1.1 (c68e22c387, 2021-05-23)"
   sodipodi:docname="logos.svg"
   xmlns:inkscape="http://www.inkscape.org/namespaces/inkscape"
   xmlns:sodipodi="http://sodipodi.sourceforge.net/DTD/sodipodi-0.dtd"
   xmlns="http://www.w3.org/2000/svg"
   xmlns:svg="http://www.w3.org/2000/svg">
  <sodipodi:namedview
     id="namedview7"
     pagecolor="#505050"
     bordercolor="#eeeeee"
     borderopacity="1"
     inkscape:pageshadow="0"
     inkscape:pageopacity="0"
     inkscape:pagecheckerboard="0"
     inkscape:document-units="mm"
     showgrid="false"
     inkscape:zoom="2.0460067"
     inkscape:cx="380.74166"
     inkscape:cy="554.49476"
     inkscape:window-width="1920"
     inkscape:window-height="1001"
     inkscape:window-x="-9"
     inkscape:window-y="-9"
     inkscape:window-maximized="1"
     inkscape:current-layer="layer1" />
  <defs
     id="defs2">
    <rect
       x="297.21888"
       y="457.57884"
       width="241.92235"
       height="211.50925"
       id="rect2432" />
  </defs>
  <g
     inkscape:label="Layer 1"
     inkscape:groupmode="layer"
     id="layer1">
    <path
       id="path8913"
       style="fill:#f6f2ee;stroke-width:1.41474;stroke-linecap:round;stroke-linejoin:round;stroke-dashoffset:188.976"
       d="m 133.84303,141.79603 c -2.70083,14.06265 -28.53406,14.82043 -42.028003,11.31523 -10.076662,-2.61752 -11.143416,-8.01393 -11.509208,-18.03971 -0.578126,-15.84552 11.553177,-23.82463 25.475441,-25.28146 16.26798,-1.70228 31.27477,15.27653 28.06177,32.00594 z"
       sodipodi:nodetypes="sssss" />
    <g
       aria-label="ume"
       transform="matrix(0.39736821,0,0,0.62197061,-33.993408,-173.563)"
       id="text2430"
       style="font-size:64px;line-height:1.25;font-family:Forte;-inkscape-font-specification:'Forte, Normal';white-space:pre;shape-inside:url(#rect2432);fill:#fe8800;fill-opacity:1">
      <path
         d="m 318.15625,504.36075 -0.53125,0.4375 q -0.15625,0.0937 -2.09375,1.59375 -3.75,2.9375 -6.1875,4.65625 -2.4375,1.6875 -4.0625,2.5 -1.625,0.78125 -2.625,0.78125 -1.6875,0 -2.71875,-1.375 -1,-1.40625 -1,-3.625 0,-3.75 1.125,-8.71875 1.125,-5 3.03125,-9.84375 2.09375,-5.375 5.125,-6.5625 1.0625,-0.46875 2.5,-0.46875 1.96875,0 3.1875,1.21875 1.21875,1.21875 1.21875,3.21875 0,1.375 -0.46875,2.90625 -0.46875,1.53125 -1.5,3.65625 l -0.375,0.90625 q -2.6875,5.6875 -2.6875,6.90625 0,0.71875 0.5,0.71875 0.46875,0 1.21875,-0.65625 0.75,-0.65625 2.3125,-2.40625 0.96875,-1.1875 2.75,-2.96875 l 1.15625,-1.15625 1,-1.0625 q 3.15625,-3.125 5.15625,-4.5 2,-1.40625 3.3125,-1.40625 2.5,0 2.5,4.34375 0,0.90625 -0.21875,3.21875 -0.375,4.5 -0.375,7.625 0.0312,0.625 0.0312,1.15625 0.0312,0.5 0.0312,1.3125 0.21875,2.09375 0.3125,3.21875 Q 330,511.767 330,511.767 q 0,0.9375 -1.6875,1.65625 -1.6875,0.71875 -3.90625,0.71875 -2.03125,0 -3.5,-0.78125 -1.4375,-0.8125 -2.1875,-2.375 -0.75,-1.5625 -0.75,-3.8125 0,-0.28125 0.0625,-0.96875 0.0625,-0.71875 0.125,-1.84375 z"
         id="path6108"
         style="fill:#fe8800;fill-opacity:1" />
      <path
         d="m 366.90625,502.8295 -8.53125,8.75 q -1.65625,1.65625 -2.6875,2.28125 -1,0.59375 -2.21875,0.59375 -1.90625,0 -3.21875,-1.40625 -1.28125,-1.4375 -1.28125,-3.5 0,-1.28125 0.375,-2.78125 0.40625,-1.53125 1.5625,-4.53125 0.21875,-0.625 0.40625,-1.0625 0.21875,-0.46875 0.34375,-0.78125 l -0.125,-0.125 q -3.03125,3.1875 -5.9375,6.71875 -2.4375,2.90625 -3.875,4.34375 -1.4375,1.4375 -2.59375,2.15625 -1.15625,0.71875 -2.0625,0.71875 -2.03125,0 -3.21875,-1.59375 -1.1875,-1.59375 -1.1875,-4.34375 0,-3.46875 3,-11.21875 2.6875,-6.875 4.15625,-9.21875 2.15625,-3.25 4.9375,-3.25 1.6875,0 2.78125,0.8125 1.125,0.78125 1.125,2.0625 0,2.34375 -1.78125,7.15625 -0.6875,1.78125 -1.40625,4.03125 l 0.125,0.125 q 1.15625,-1.28125 3.71875,-4.40625 4.40625,-5.4375 6.65625,-7.40625 2.90625,-2.6875 5.3125,-2.6875 1.0625,0 2.03125,0.71875 0.96875,0.71875 1.53125,1.9375 0.59375,1.1875 0.59375,2.5 0,1.34375 -1.9375,6.875 -0.40625,1.15625 -0.625,1.8125 -0.21875,0.65625 -0.40625,1.125 l 0.15625,0.125 q 0.4375,-0.4375 0.78125,-0.78125 0.34375,-0.34375 0.75,-0.71875 0.4375,-0.40625 0.8125,-0.75 0.84375,-0.8125 4.25,-4.28125 2.25,-2.5 3.53125,-3.40625 1.28125,-0.9375 2.46875,-0.9375 1.9375,0 2.9375,1.34375 1.03125,1.3125 1.03125,3.90625 0,1.59375 -0.5,5.03125 -0.4375,3.875 -0.625,6.09375 -0.15625,2.1875 -0.15625,3.0625 0,0.65625 0.0625,1.6875 0.0937,1 0.28125,2.15625 0.1875,1.15625 0.5,2.5625 0.375,1.71875 0.5,2.6875 -0.25,1.125 -1.65625,1.90625 -1.375,0.78125 -3,0.78125 -2.5625,0 -4.8125,-2.3125 -1,-1.0625 -1.5625,-2.15625 -0.53125,-1.0625 -0.78125,-2.53125 -0.21875,-1.5 -0.21875,-3.9375 0,-1.59375 0.375,-6.59375 l -0.125,-0.125 z"
         id="path6110"
         style="fill:#fe8800;fill-opacity:1" />
      <path
         d="m 392.9375,504.42325 q 1.4375,-0.96875 2.1875,-1.9375 1.65625,-2.03125 2.5625,-4.65625 0.71875,-1.71875 1.125,-3.84375 0.40625,-2.125 0.40625,-3.96875 0,-1.71875 -0.71875,-1.71875 -1,0 -3.0625,4.40625 -1.21875,2.65625 -2,5.3125 -0.75,2.625 -0.75,4.53125 0,0.65625 0.25,1.875 z m 0.0625,1 q 0.34375,1.875 2.4375,1.875 2.34375,0 6.09375,-2.75 2.1875,-1.59375 2.9375,-1.59375 0.9375,0 1.75,0.5 0.8125,0.5 0.8125,1.03125 0,0.5625 -0.90625,1.46875 -1.65625,1.65625 -3.8125,3.25 -2.15625,1.5625 -4.15625,2.625 -2,1.03125 -4,1.65625 -2,0.59375 -3.5625,0.59375 -3.90625,0 -6.25,-2.21875 Q 382,509.61075 382,505.892 q 0,-2.84375 1.21875,-6.40625 1.25,-3.59375 3.34375,-6.71875 2.46875,-3.65625 6.0625,-6.09375 4.4375,-2.9375 8.5,-2.9375 2.9375,0 4.59375,1.875 1.6875,1.84375 1.6875,5.09375 0,2.53125 -1.34375,5.28125 -1.3125,2.75 -3.90625,5.28125 -2.125,2.125 -4.1875,3.3125 -2.03125,1.1875 -3.5625,1.1875 -0.6875,0 -1.40625,-0.34375 z"
         id="path6112"
         style="fill:#fe8800;fill-opacity:1" />
    </g>
    <ellipse
       style="fill:#fe8800;fill-opacity:1;stroke-width:1.765;stroke-linecap:round;stroke-linejoin:round;stroke-dashoffset:188.976"
       id="path6542"
       cx="89.422668"
       cy="124.04728"
       rx="2.4570217"
       ry="1.9074249" />
    <ellipse
       style="fill:#fe8800;fill-opacity:1;stroke-width:1.765;stroke-linecap:round;stroke-linejoin:round;stroke-dashoffset:188.976"
       id="path6542-7"
       cx="103.45355"
       cy="124.4029"
       rx="2.4570217"
       ry="1.9074249" />
    <text
       xml:space="preserve"
       style="font-style:normal;font-weight:normal;font-size:3.22076px;line-height:1.25;font-family:sans-serif;fill:#f68509;fill-opacity:1;stroke:none;stroke-width:0.0805192"
       x="84.510521"
       y="169.90504"
       id="text8122"
       transform="scale(1.1445723,0.8736888)"><tspan
         sodipodi:role="line"
         id="tspan8120"
         style="fill:#f68509;fill-opacity:1;stroke-width:0.0805192"
         x="84.510521"
         y="169.90504">&amp;</tspan></text>
  </g>
</svg>
